<?xml version="1.0" standalone="no"?>
<!DOCTYPE svg PUBLIC "-//W3C//DTD SVG 20010904//EN"
 "http://www.w3.org/TR/2001/REC-SVG-20010904/DTD/svg10.dtd">
<svg version="1.0" xmlns="http://www.w3.org/2000/svg"
 width="512.000000pt" height="512.000000pt" viewBox="0 0 512.000000 512.000000"
 preserveAspectRatio="xMidYMid meet">
<metadata>
Created by potrace 1.14, written by Peter Selinger 2001-2017
</metadata>
<g transform="translate(0.000000,512.000000) scale(0.100000,-0.100000)"
fill="#000000" stroke="none">
<path d="M0 2560 l0 -2560 2560 0 2560 0 0 2560 0 2560 -2560 0 -2560 0 0
-2560z m4798 348 c5 -7 12 -35 15 -63 3 -27 9 -67 13 -88 4 -23 2 -43 -5 -51
-8 -10 -10 -34 -6 -73 17 -147 19 -397 4 -425 -9 -17 -122 -18 -2239 -18
-1772 0 -2230 3 -2237 13 -4 6 -8 59 -9 117 0 58 -4 216 -7 353 l-7 247 2234
0 c1775 0 2236 -3 2244 -12z"/>
<path d="M414 2837 c-3 -9 -1 -24 5 -36 13 -24 15 -88 2 -95 -11 -7 -1 -287
11 -303 5 -6 8 -40 6 -75 -2 -51 0 -63 12 -63 11 0 17 17 22 64 4 36 3 70 -1
75 -12 16 -22 294 -10 301 13 9 11 54 -5 100 -15 42 -32 56 -42 32z"/>
</g>
</svg>
